IKResults
version=1
nRows=8
nColumns=63
inDegrees=yes

Units are S.I. units (second, meters, Newtons, ...)
If the header above contains a line with 'inDegrees', this indicates whether rotational values are in degrees (yes) or radians (no).

endheader
time	pelvis_tilt	pelvis_list	pelvis_rotation	pelvis_tx	pelvis_ty	pelvis_tz	hip_flexion_r	hip_adduction_r	hip_rotation_r	knee_angle_r	knee_angle_r_beta	ankle_angle_r	subtalar_angle_r	mtp_angle_r	hip_flexion_l	hip_adduction_l	hip_rotation_l	knee_angle_l	knee_angle_l_beta	ankle_angle_l	subtalar_angle_l	mtp_angle_l	L5_S1_Flex_Ext	L5_S1_Lat_Bending	L5_S1_axial_rotation	L4_L5_Flex_Ext	L4_L5_Lat_Bending	L4_L5_axial_rotation	L3_L4_Flex_Ext	L3_L4_Lat_Bending	L3_L4_axial_rotation	L2_L3_Flex_Ext	L2_L3_Lat_Bending	L2_L3_axial_rotation	L1_L2_Flex_Ext	L1_L2_Lat_Bending	L1_L2_axial_rotation	L1_T12_Flex_Ext	L1_T12_Lat_Bending	L1_T12_axial_rotation	Abs_r3	Abs_r2	Abs_r1	Abs_t1	Abs_t2	neck_flexion	neck_bending	neck_rotation	arm_flex_r	arm_add_r	arm_rot_r	elbow_flex_r	pro_sup_r	wrist_flex_r	wrist_dev_r	arm_flex_l	arm_add_l	arm_rot_l	elbow_flex_l	pro_sup_l	wrist_flex_l	wrist_dev_l
      4.03333333	    -74.66817047	     35.25242908	     72.07514060	     -0.74827493	      0.27671130	     -0.36702420	     79.87977912	     17.91275111	      8.65579924	     40.68916789	      0.71015995	      0.00000000	      0.00000000	      0.00000000	     33.21813583	     -0.09304643	     -5.95484222	     28.64837878	      0.50000854	    -36.05582382	     -9.88774853	      0.00000000	      8.34411267	      1.34114761	      1.33030216	     15.49585163	      1.78372632	      1.41344605	     13.70854270	      3.26086630	      1.41344605	      9.53648637	      3.26086630	      1.16401439	      7.74834302	      2.73486821	      1.08087051	      4.76782598	      2.07743765	      0.99772662	     59.60116237	     15.17133001	      7.39874155	      0.00000000	      0.00000000	     15.69122137	     -5.39122510	    -44.77125525	    -27.34910730	   -189.88918572	     42.19770323	     31.99112960	     89.99559364	      0.00000000	      0.00000000	     -0.64796869	     27.46442579	      9.39981664	     38.05365608	     89.99559364	      0.00000000	      0.00000000
      4.06666667	    -74.50059045	     35.19429658	     72.29236522	     -0.74887065	      0.27731903	     -0.36736969	     80.43149367	     17.54201556	      8.67383848	     40.69433541	      0.71025014	      0.00000000	      0.00000000	      0.00000000	     32.75952595	     -0.05200696	     -6.12826587	     27.79394681	      0.48509588	    -35.73765503	     -9.71743120	      0.00000000	      8.34057664	      1.33195697	      1.29467755	     15.48928488	      1.77150277	      1.37559490	     13.70273336	      3.23852018	      1.37559490	      9.53244504	      3.23852018	      1.13284286	      7.74505947	      2.71612665	      1.05192551	      4.76580549	      2.06320135	      0.97100816	     59.57590487	     15.06736365	      7.20060813	      0.00000000	      0.00000000	     16.03759596	     -5.50445544	    -44.76821919	    -27.14816653	   -189.77675333	     42.06428155	     31.96462152	     89.99559364	      0.00000000	      0.00000000	     -0.49718875	     27.44268976	      9.68944410	     38.00474095	     89.99559364	      0.00000000	      0.00000000
      4.10000000	    -74.34198972	     35.17947751	     72.59922554	     -0.74941737	      0.27822001	     -0.36782432	     81.05573154	     17.03300011	      8.69651248	     40.69124930	      0.71019628	      0.00000000	      0.00000000	      0.00000000	     32.19951654	      0.04537306	     -6.35164320	     26.82005004	      0.46809818	    -35.32271945	     -9.39768769	      0.00000000	      8.32952855	      1.31588214	      1.24594432	     15.46876747	      1.75012324	      1.32381584	     13.68458245	      3.19943583	      1.32381584	      9.51981818	      3.19943583	      1.09020128	      7.73480021	      2.68334685	      1.01232976	      4.75949261	      2.03830143	      0.93445824	     59.49698947	     14.88552191	      6.92956854	      0.00000000	      0.00000000	     16.38904439	     -5.64331392	    -44.76576669	    -26.89825750	   -189.62290502	     41.86989298	     31.96032982	     89.99559364	      0.00000000	      0.00000000	     -0.33680742	     27.33625467	     10.21706667	     37.98096610	     89.99559364	      0.00000000	      0.00000000
      4.13333333	    -74.31785078	     35.48156450	     73.51622379	     -0.74990179	      0.27942222	     -0.36847564	     81.46742476	     16.01450545	      8.75852657	     40.62567753	      0.70905183	      0.00000000	      0.00000000	      0.00000000	     31.39228114	      0.41717235	     -6.72268688	     25.86231119	      0.45138248	    -34.73942474	     -7.74473373	      0.00000000	      8.27610188	      1.23611756	      1.15743971	     15.36954880	      1.64403636	      1.22977969	     13.59680777	      3.00549624	      1.22977969	      9.45875684	      3.00549624	      1.01275974	      7.68518820	      2.52069093	      0.94041976	      4.72896461	      1.91474610	      0.86807978	     59.11536810	     13.98320908	      6.43733242	      0.00000000	      0.00000000	     16.67560363	     -5.65461829	    -44.76651853	    -26.26110926	   -189.22776272	     40.40083671	     32.31397014	     89.99559364	      0.00000000	      0.00000000	      0.17024233	     26.32971349	     13.28414913	     38.17919227	     89.99559364	      0.00000000	      0.00000000
      4.16666667	    -74.08463768	     35.43140572	     73.63641415	     -0.75012642	      0.28057135	     -0.36909368	     82.08281344	     15.58371848	      8.78526939	     40.59794913	      0.70856788	      0.00000000	      0.00000000	      0.00000000	     30.85782285	      0.42713358	     -6.80541629	     24.94767836	      0.43541913	    -34.30751501	     -7.79822574	      0.00000000	      8.27339540	      1.23216740	      1.13791267	     15.36452260	      1.63878264	      1.20903221	     13.59236131	      2.99589181	      1.20903221	      9.45566361	      2.99589181	      0.99567359	      7.68267497	      2.51263576	      0.92455404	      4.72741813	      1.90862730	      0.85343450	     59.09603603	     13.93852403	      6.32872889	      0.00000000	      0.00000000	     16.87932973	     -5.88828018	    -44.76170241	    -25.92614347	   -188.91644978	     40.08469144	     32.25890456	     89.99559364	      0.00000000	      0.00000000	      0.23617297	     26.20838743	     14.03094224	     38.22636555	     89.99559364	      0.00000000	      0.00000000
      4.20000000	    -73.86838960	     35.33440428	     73.84079966	     -0.74991998	      0.28215991	     -0.36999464	     82.62588517	     15.02702598	      9.04810464	     39.82176148	      0.69502085	      0.00000000	      0.00000000	      0.00000000	     30.41244180	      0.43480794	     -6.81622571	     24.08153024	      0.42030199	    -34.15694774	     -7.31995232	      0.00000000	      8.29631219	      1.20511021	      1.21516513	     15.40708136	      1.60279657	      1.29111295	     13.63001129	      2.93010496	      1.29111295	      9.48185520	      2.93010496	      1.06326948	      7.70395550	      2.45746073	      0.98732166	      4.74051278	      1.86671571	      0.91137384	     59.25972833	     13.63244768	      6.75838388	      0.00000000	      0.00000000	     16.98206073	     -6.45681239	    -44.76077130	    -24.04880319	   -187.51684665	     33.57536552	     33.04753826	     89.99559364	      0.00000000	      0.00000000	      0.77101821	     25.02663118	     19.36776612	     38.34931989	     89.99559364	      0.00000000	      0.00000000
      4.23333333	    -73.65864594	     35.42408192	     74.15647291	     -0.74940119	      0.28383902	     -0.37086908	     82.86465996	     14.38752754	      9.10316528	     39.63682544	      0.69179311	      0.00000000	      0.00000000	      0.00000000	     29.85460186	      0.56209968	     -6.42902838	     23.31709130	      0.40696002	    -34.26499207	     -7.15041261	      0.00000000	      8.28435840	      1.17611063	      1.18222375	     15.38488198	      1.56422714	      1.25611273	     13.61037241	      2.85959539	      1.25611273	      9.46819321	      2.85959539	      1.03444578	      7.69285521	      2.39832480	      0.96055679	      4.73368239	      1.82179537	      0.88666781	     59.17434361	     13.30439867	      6.57517381	      0.00000000	      0.00000000	     16.76665028	     -6.93875196	    -44.75280846	    -23.49213464	   -186.87950450	     32.46098786	     33.16715576	     89.99559364	      0.00000000	      0.00000000	      0.83756881	     24.16355316	     22.28783907	     39.10902312	     89.99559364	      0.00000000	      0.00000000
      4.26666667	    -73.43195896	     35.17397077	     74.00087700	     -0.74863666	      0.28571662	     -0.37202273	     83.26814112	     14.06697205	      9.26784762	     38.78964352	      0.67700700	      0.00000000	      0.00000000	      0.00000000	     29.72918651	      0.47060014	     -5.73612924	     22.78359649	      0.39764877	    -34.55828058	     -7.62164395	      0.00000000	      8.33732555	      1.16471723	      1.32732273	     15.48324727	      1.54907392	      1.41028040	     13.69739214	      2.83189348	      1.41028040	      9.52872937	      2.83189348	      1.16140739	      7.74204050	      2.37509138	      1.07844972	      4.76394782	      1.80414699	      0.99549205	     59.55268265	     13.17551427	      7.38217083	      0.00000000	      0.00000000	     16.63785934	     -7.60048823	    -44.74592621	    -21.54756522	   -185.11401392	     26.45509302	     34.22248417	     89.99559364	      0.00000000	      0.00000000	      1.19788403	     23.09476877	     27.54735590	     39.53677530	     89.99559364	      0.00000000	      0.00000000
